<svg width="20" height="20" viewBox="0 0 20 20" fill="none" xmlns="http://www.w3.org/2000/svg">
<path d="M10 0.85C4.94663 0.85 0.85 4.94663 0.85 10C0.85 15.0537 4.94663 19.15 10 19.15C15.0537 19.15 19.15 15.0537 19.15 10C19.15 4.94663 15.0537 0.85 10 0.85ZM10 17.7427C5.74106 17.7427 2.275 14.2598 2.275 9.99996C2.275 5.74059 5.74062 2.27496 10 2.27496C14.2594 2.27496 17.725 5.74061 17.725 9.99996C17.725 14.2598 14.2589 17.7427 10 17.7427ZM13.9375 9.2875H10.7125V6.0625C10.7125 5.66916 10.3933 5.35 10 5.35C9.60666 5.35 9.2875 5.66916 9.2875 6.0625V9.2875H6.0625C5.66916 9.2875 5.35 9.60666 5.35 10C5.35 10.3933 5.66916 10.7125 6.0625 10.7125H9.2875V13.9375C9.2875 14.3308 9.60666 14.65 10 14.65C10.3933 14.65 10.7125 14.3308 10.7125 13.9375V10.7125H13.9375C14.3308 10.7125 14.65 10.3933 14.65 10C14.65 9.60666 14.3308 9.2875 13.9375 9.2875Z" fill="#073D3D" stroke="#073D3D" stroke-width="0.3"/>
</svg>
