<svg width="24" height="24" viewBox="0 0 24 24" fill="none" xmlns="http://www.w3.org/2000/svg">
<path fill-rule="evenodd" clip-rule="evenodd" d="M8.88367 5.05567C9.39927 4.53996 10.0986 4.25016 10.8278 4.25H19C19.7293 4.25 20.4288 4.53973 20.9445 5.05546C21.4603 5.57118 21.75 6.27065 21.75 7V17C21.75 17.7293 21.4603 18.4288 20.9445 18.9445C20.4288 19.4603 19.7293 19.75 19 19.75H10.828C10.0988 19.7498 9.39927 19.46 8.88367 18.9443C8.88364 18.9443 8.8837 18.9444 8.88367 18.9443L2.46967 12.5303C2.17678 12.2374 2.17678 11.7626 2.46967 11.4697L8.88367 5.05567C8.8837 5.05564 8.88364 5.0557 8.88367 5.05567ZM10.828 5.75C10.4966 5.75011 10.1787 5.88185 9.94441 6.11625L4.06066 12L9.94433 17.8837C10.1787 18.1181 10.4966 18.2499 10.828 18.25C10.8279 18.25 10.8281 18.25 10.828 18.25H19C19.3315 18.25 19.6495 18.1183 19.8839 17.8839C20.1183 17.6495 20.25 17.3315 20.25 17V7C20.25 6.66848 20.1183 6.35054 19.8839 6.11612C19.6495 5.8817 19.3315 5.75 19 5.75H10.828C10.8281 5.75 10.8279 5.75 10.828 5.75ZM11.4697 9.46967C11.7626 9.17678 12.2374 9.17678 12.5303 9.46967L14 10.9393L15.4697 9.46967C15.7626 9.17678 16.2374 9.17678 16.5303 9.46967C16.8232 9.76256 16.8232 10.2374 16.5303 10.5303L15.0607 12L16.5303 13.4697C16.8232 13.7626 16.8232 14.2374 16.5303 14.5303C16.2374 14.8232 15.7626 14.8232 15.4697 14.5303L14 13.0607L12.5303 14.5303C12.2374 14.8232 11.7626 14.8232 11.4697 14.5303C11.1768 14.2374 11.1768 13.7626 11.4697 13.4697L12.9393 12L11.4697 10.5303C11.1768 10.2374 11.1768 9.76256 11.4697 9.46967Z" fill="#B3BEC6"/>
</svg>
