<svg width="32" height="32" viewBox="0 0 32 32" fill="none" xmlns="http://www.w3.org/2000/svg">
<path d="M6.93258 1.56536L6.93263 1.56532C6.9773 1.5277 7.0327 1.50511 7.09095 1.50077C7.1492 1.49643 7.20734 1.51056 7.2571 1.54116C13.0925 5.13267 16.2424 9.63015 17.9298 14.5785L17.9298 14.5786C18.3507 15.8126 18.6811 17.0763 18.9381 18.3633C19.0597 18.9721 19.5438 19.443 20.1557 19.5479C20.7676 19.6528 21.3809 19.3698 21.6982 18.8363C23.328 16.0962 25.9628 13.8498 30.1192 12.1879C30.1677 12.1685 30.2207 12.1632 30.272 12.1726C30.3234 12.1819 30.3711 12.2056 30.4097 12.2408C30.4482 12.2761 30.476 12.3215 30.4899 12.3718C30.5038 12.422 30.5033 12.4751 30.4885 12.525C30.4884 12.5251 30.4884 12.5252 30.4884 12.5254L30.1672 13.5971L30.1669 13.598L30.137 13.6976C27.7428 21.6687 26.9447 24.3259 26.9447 30.2222C26.9447 30.2959 26.9154 30.3666 26.8633 30.4186C26.8112 30.4707 26.7406 30.5 26.6669 30.5H5.33343C5.25974 30.5 5.18908 30.4707 5.13699 30.4186C5.0849 30.3665 5.05564 30.2959 5.05564 30.2222C5.05564 23.1502 4.17542 18.7357 1.51404 10.7551C1.49747 10.705 1.49552 10.6512 1.50844 10.6L0.0607022 10.2348L1.50844 10.6C1.52138 10.5487 1.54873 10.5021 1.58726 10.4658C1.62579 10.4295 1.67389 10.405 1.72592 10.3951C1.77794 10.3852 1.8317 10.3904 1.88086 10.41L1.88119 10.4101C4.17083 11.3243 5.85979 12.5234 7.11478 13.9023C7.55614 14.3872 8.26134 14.5292 8.85603 14.253C9.45073 13.9768 9.79706 13.3462 9.71119 12.6962C9.22084 8.98405 8.26043 5.34935 6.85305 1.87954C6.83187 1.82573 6.82801 1.76663 6.84203 1.7105C6.85619 1.6538 6.88788 1.60301 6.93258 1.56536Z" fill="#073D3D" fill-opacity="0.2" stroke="#073D3D" stroke-width="3" stroke-linejoin="round"/>
</svg>
