<svg width="25" height="24" viewBox="0 0 25 24" fill="none" xmlns="http://www.w3.org/2000/svg">
<path d="M13.1139 1.21065C12.7528 0.929784 12.2472 0.929784 11.8861 1.21065L2.88606 8.21065C2.64247 8.4001 2.5 8.69141 2.5 9V21C2.5 22.1046 3.39543 23 4.5 23L8.5 23C9.05229 23 9.5 22.5523 9.5 22V15C9.5 14.4477 9.94772 14 10.5 14H14.5C15.0523 14 15.5 14.4477 15.5 15V22C15.5 22.5523 15.9477 23 16.5 23L20.5 23C21.6046 23 22.5 22.1046 22.5 21V9C22.5 8.69141 22.3575 8.4001 22.1139 8.21065L13.1139 1.21065Z" fill="#073D3D"/>
</svg>
