<svg width="55" height="16" viewBox="0 0 55 16" fill="none" xmlns="http://www.w3.org/2000/svg">
<path d="M3.66 12.36H8.14V15H0.24V0.96H3.66V12.36ZM16.4113 15.14C15.0913 15.14 13.8779 14.8333 12.7713 14.22C11.6779 13.6067 10.8046 12.7533 10.1513 11.66C9.51125 10.5533 9.19125 9.31333 9.19125 7.94C9.19125 6.56667 9.51125 5.33333 10.1513 4.24C10.8046 3.14667 11.6779 2.29333 12.7713 1.68C13.8779 1.06667 15.0913 0.76 16.4113 0.76C17.7313 0.76 18.9379 1.06667 20.0313 1.68C21.1379 2.29333 22.0046 3.14667 22.6313 4.24C23.2713 5.33333 23.5913 6.56667 23.5913 7.94C23.5913 9.31333 23.2713 10.5533 22.6313 11.66C21.9913 12.7533 21.1246 13.6067 20.0313 14.22C18.9379 14.8333 17.7313 15.14 16.4113 15.14ZM16.4113 12.02C17.5313 12.02 18.4246 11.6467 19.0912 10.9C19.7713 10.1533 20.1113 9.16667 20.1113 7.94C20.1113 6.7 19.7713 5.71333 19.0912 4.98C18.4246 4.23333 17.5313 3.86 16.4113 3.86C15.2779 3.86 14.3713 4.22667 13.6913 4.96C13.0246 5.69333 12.6913 6.68667 12.6913 7.94C12.6913 9.18 13.0246 10.1733 13.6913 10.92C14.3713 11.6533 15.2779 12.02 16.4113 12.02ZM34.8139 5.4C34.5606 4.93333 34.1939 4.58 33.7139 4.34C33.2472 4.08667 32.6939 3.96 32.0539 3.96C30.9472 3.96 30.0606 4.32667 29.3939 5.06C28.7272 5.78 28.3939 6.74667 28.3939 7.96C28.3939 9.25333 28.7406 10.2667 29.4339 11C30.1406 11.72 31.1072 12.08 32.3339 12.08C33.1739 12.08 33.8806 11.8667 34.4539 11.44C35.0406 11.0133 35.4672 10.4 35.7339 9.6H31.3939V7.08H38.8339V10.26C38.5806 11.1133 38.1472 11.9067 37.5339 12.64C36.9339 13.3733 36.1672 13.9667 35.2339 14.42C34.3006 14.8733 33.2472 15.1 32.0739 15.1C30.6872 15.1 29.4472 14.8 28.3539 14.2C27.2739 13.5867 26.4272 12.74 25.8139 11.66C25.2139 10.58 24.9139 9.34667 24.9139 7.96C24.9139 6.57333 25.2139 5.34 25.8139 4.26C26.4272 3.16667 27.2739 2.32 28.3539 1.72C29.4339 1.10667 30.6672 0.799999 32.0539 0.799999C33.7339 0.799999 35.1472 1.20667 36.2939 2.02C37.4539 2.83333 38.2206 3.96 38.5939 5.4H34.8139ZM47.3683 15.14C46.0483 15.14 44.8349 14.8333 43.7283 14.22C42.6349 13.6067 41.7616 12.7533 41.1083 11.66C40.4683 10.5533 40.1483 9.31333 40.1483 7.94C40.1483 6.56667 40.4683 5.33333 41.1083 4.24C41.7616 3.14667 42.6349 2.29333 43.7283 1.68C44.8349 1.06667 46.0483 0.76 47.3683 0.76C48.6883 0.76 49.8949 1.06667 50.9883 1.68C52.0949 2.29333 52.9616 3.14667 53.5883 4.24C54.2283 5.33333 54.5483 6.56667 54.5483 7.94C54.5483 9.31333 54.2283 10.5533 53.5883 11.66C52.9483 12.7533 52.0816 13.6067 50.9883 14.22C49.8949 14.8333 48.6883 15.14 47.3683 15.14ZM47.3683 12.02C48.4883 12.02 49.3816 11.6467 50.0483 10.9C50.7283 10.1533 51.0683 9.16667 51.0683 7.94C51.0683 6.7 50.7283 5.71333 50.0483 4.98C49.3816 4.23333 48.4883 3.86 47.3683 3.86C46.2349 3.86 45.3283 4.22667 44.6483 4.96C43.9816 5.69333 43.6483 6.68667 43.6483 7.94C43.6483 9.18 43.9816 10.1733 44.6483 10.92C45.3283 11.6533 46.2349 12.02 47.3683 12.02Z" fill="#1F2024"/>
</svg>
