<svg width="20" height="21" viewBox="0 0 20 21" fill="none" xmlns="http://www.w3.org/2000/svg">
<path d="M17.9412 10.2788H7.88235M15.8235 13.6623L19 10.2788L15.8235 6.89535M10.5294 4.6397V3.51188C10.5294 2.91364 10.3063 2.33991 9.90917 1.91689C9.51203 1.49387 8.9734 1.25623 8.41177 1.25623H3.11765C2.55601 1.25623 2.01738 1.49387 1.62024 1.91689C1.22311 2.33991 1 2.91364 1 3.51188V17.0458C1 17.644 1.22311 18.2178 1.62024 18.6408C2.01738 19.0638 2.55601 19.3014 3.11765 19.3014H8.41177C8.9734 19.3014 9.51203 19.0638 9.90917 18.6408C10.3063 18.2178 10.5294 17.644 10.5294 17.0458V15.918" stroke="#073D3D" stroke-width="2" stroke-linecap="round" stroke-linejoin="round"/>
</svg>
