<svg width="32" height="30" viewBox="0 0 32 30" fill="none" xmlns="http://www.w3.org/2000/svg">
<path d="M15.2585 3.35629L11.4497 8.8779L7.81445 9.05101L12.3317 2.10427C13.1852 0.791791 14.6446 0 16.2101 0C17.7757 0 19.2351 0.791791 20.0885 2.10427L24.6058 9.05101H21.4404L17.2871 3.3317C17.0533 3.00971 16.6794 2.81917 16.2815 2.81917C15.8729 2.81917 15.4905 3.01997 15.2585 3.35629Z" fill="#073D3D"/>
<path d="M3.07302 17.6201C2.4002 13.7622 5.36944 10.2303 9.28557 10.2303H23.5828C27.2044 10.2303 30.0356 13.3552 29.6795 16.9593C29.0322 23.5088 23.5235 28.5 16.942 28.5H16.0145C9.63004 28.5 4.16992 23.9097 3.07302 17.6201Z" fill="#073D3D" fill-opacity="0.2" stroke="#073D3D" stroke-width="3"/>
<path d="M12.1174 15.7354V22.995" stroke="#073D3D" stroke-width="2" stroke-linecap="round"/>
<path d="M20.4265 15.7354V22.995" stroke="#073D3D" stroke-width="2" stroke-linecap="round"/>
</svg>
