<svg width="66" height="66" viewBox="0 0 66 66" fill="none" xmlns="http://www.w3.org/2000/svg">
<path fill-rule="evenodd" clip-rule="evenodd" d="M49.896 66L40.8247 17.6367L0 21.3473V54.2667C0 58.3733 -2.1855e-07 60.4267 0.799333 61.996C1.50239 63.3758 2.62421 64.4976 4.004 65.2007C5.57333 66 7.62667 66 11.7333 66H49.896ZM34.8333 44.11C34.8333 52.0227 26.9867 57.5813 23.5657 59.631C23.0927 59.9147 22.5515 60.0646 22 60.0646C21.4485 60.0646 20.9073 59.9147 20.4343 59.631C17.0133 57.5813 9.16667 52.0227 9.16667 44.1063C9.16667 36.344 15.3853 31.1667 22 31.1667C28.8457 31.1667 34.8333 36.344 34.8333 44.11Z" fill="#073D3D"/>
<path d="M0.799333 4.004C-2.1855e-07 5.57333 0 7.62666 0 11.7333V13.9847L65.9633 7.986C65.8937 6.19667 65.7067 5.00133 65.2007 4.004C64.4976 2.62421 63.3758 1.50239 61.996 0.799333C60.4267 -2.1855e-07 58.3733 0 54.2667 0H11.7333C7.62667 0 5.57333 -2.1855e-07 4.004 0.799333C2.62421 1.50239 1.50239 2.62421 0.799333 4.004ZM66 15.3487L48.1617 16.9693L57.3503 65.9817C59.521 65.934 60.8813 65.769 61.996 65.2007C63.3758 64.4976 64.4976 63.3758 65.2007 61.996C66 60.4267 66 58.3733 66 54.2667V15.3487Z" fill="#073D3D" fill-opacity="0.4"/>
<path d="M22.0004 47.6667C24.0255 47.6667 25.6671 46.0251 25.6671 44C25.6671 41.975 24.0255 40.3334 22.0004 40.3334C19.9754 40.3334 18.3337 41.975 18.3337 44C18.3337 46.0251 19.9754 47.6667 22.0004 47.6667Z" fill="#073D3D"/>
</svg>
