<svg width="18" height="18" viewBox="0 0 18 18" fill="none" xmlns="http://www.w3.org/2000/svg">
<path d="M10.3333 13.3333C10.3333 13.597 10.2551 13.8548 10.1086 14.0741C9.96212 14.2934 9.75388 14.4643 9.51025 14.5652C9.26661 14.6661 8.99852 14.6925 8.73988 14.641C8.48124 14.5896 8.24366 14.4626 8.05719 14.2761C7.87072 14.0897 7.74374 13.8521 7.69229 13.5935C7.64084 13.3348 7.66725 13.0667 7.76816 12.8231C7.86908 12.5795 8.03998 12.3712 8.25924 12.2247C8.47851 12.0782 8.73629 12 9 12C9.35362 12 9.69276 12.1405 9.94281 12.3905C10.1929 12.6406 10.3333 12.9797 10.3333 13.3333ZM18 9C18 10.78 17.4722 12.5201 16.4832 14.0001C15.4943 15.4802 14.0887 16.6337 12.4442 17.3149C10.7996 17.9961 8.99002 18.1743 7.24419 17.8271C5.49836 17.4798 3.89471 16.6226 2.63604 15.364C1.37737 14.1053 0.520203 12.5016 0.172936 10.7558C-0.17433 9.00998 0.00389957 7.20038 0.685088 5.55585C1.36628 3.91131 2.51983 2.50571 3.99987 1.51677C5.47991 0.527841 7.21997 0 9 0C11.3861 0.00264685 13.6738 0.951708 15.361 2.63896C17.0483 4.32622 17.9974 6.61386 18 9ZM16 9C16 7.61553 15.5895 6.26215 14.8203 5.11101C14.0511 3.95986 12.9579 3.06266 11.6788 2.53284C10.3997 2.00303 8.99224 1.86441 7.63437 2.1345C6.2765 2.4046 5.02922 3.07128 4.05026 4.05025C3.07129 5.02922 2.4046 6.2765 2.13451 7.63437C1.86441 8.99223 2.00303 10.3997 2.53285 11.6788C3.06266 12.9579 3.95987 14.0511 5.11101 14.8203C6.26216 15.5895 7.61553 16 9 16C10.8559 15.998 12.6352 15.2599 13.9476 13.9476C15.2599 12.6352 15.998 10.8559 16 9ZM9 3.66667C6.97834 3.66667 5.33334 5.16167 5.33334 7V7.33333C5.33334 7.59855 5.43869 7.8529 5.62623 8.04044C5.81377 8.22797 6.06812 8.33333 6.33334 8.33333C6.59855 8.33333 6.85291 8.22797 7.04044 8.04044C7.22798 7.8529 7.33334 7.59855 7.33334 7.33333V7C7.33334 6.265 8.08334 5.66667 9 5.66667C9.91667 5.66667 10.6667 6.265 10.6667 7C10.6667 7.735 9.91667 8.33333 9 8.33333C8.73479 8.33333 8.48043 8.43869 8.29289 8.62622C8.10536 8.81376 8 9.06811 8 9.33333V10C7.99941 10.2471 8.09029 10.4856 8.25513 10.6696C8.41997 10.8536 8.6471 10.9701 8.89274 10.9966C9.13838 11.0231 9.38513 10.9578 9.58543 10.8131C9.78572 10.6685 9.92539 10.4548 9.9775 10.2133C11.5258 9.82333 12.6667 8.53083 12.6667 7C12.6667 5.16167 11.0217 3.66667 9 3.66667Z" fill="#073D3D"/>
</svg>
