<svg width="393" height="356" viewBox="0 0 393 356" fill="none" xmlns="http://www.w3.org/2000/svg">
<path d="M105.843 68.2145C112.542 79.0082 119.986 80.497 125.197 74.1697C133.385 64.4926 124.453 52.2101 114.776 48.8604C98.7712 42.5331 85 60.3984 85 60.3984C85 60.3984 100.26 58.9097 105.843 68.2145Z" fill="#396464"/>
<path d="M236.856 30.2505C208.197 46.9993 232.017 87.1964 180.282 97.99L235.367 125.16C246.533 144.514 277.425 146.003 277.425 146.003C277.425 146.003 285.241 122.927 278.914 105.806C296.035 105.806 307.945 95.3847 307.945 95.3847C307.945 95.3847 298.268 61.1427 268.865 61.1427C297.896 49.2325 303.107 24.6676 303.107 24.6676C303.107 24.6676 277.425 6.80223 236.856 30.2505Z" fill="#396464"/>
<path d="M210.429 223.048H157.206C157.206 218.581 188.47 217.837 189.959 188.061C194.797 221.187 210.429 218.581 210.429 223.048Z" fill="#396464"/>
<path d="M261.42 106.178C261.42 148.981 226.434 192.9 183.259 192.9C140.084 192.9 105.098 148.981 105.098 106.178C105.098 77.5194 166.883 97.6179 183.259 97.6179C226.434 97.2457 261.42 63.0038 261.42 106.178Z" fill="#396464"/>
<path d="M213.035 175.407C213.035 183.967 200.753 202.577 189.959 202.577C179.165 202.577 166.883 189.922 166.883 181.362C166.883 172.801 213.035 171.312 213.035 175.407Z" fill="#396464"/>
<path d="M101.749 90.174C101.749 101.34 103.982 133.721 103.982 133.721L114.031 121.066L125.941 135.21L128.547 115.483L146.784 128.51L143.435 109.156L165.394 111.389L155.345 99.4788L170.605 89.4296C170.605 89.4296 151.995 93.5237 152.367 81.9857C152.74 70.4476 162.044 37.6945 150.506 32.8559C129.291 25.0398 101.749 42.9052 101.749 90.174Z" fill="#396464"/>
<path d="M101.749 53.3266C103.188 53.3266 104.354 52.8266 104.354 52.21C104.354 51.5933 103.188 51.0934 101.749 51.0934C100.31 51.0934 99.1436 51.5933 99.1436 52.21C99.1436 52.8266 100.31 53.3266 101.749 53.3266Z" fill="#396464"/>
<path d="M120.359 60.0262C123.442 60.0262 125.941 57.5266 125.941 54.4433C125.941 51.3599 123.442 48.8604 120.359 48.8604C117.275 48.8604 114.776 51.3599 114.776 54.4433C114.776 57.5266 117.275 60.0262 120.359 60.0262Z" fill="#396464"/>
<path d="M106.587 80.1247C106.587 92.035 98.7711 83.4745 98.7711 83.4745C96.1657 83.4745 85.372 91.6628 89.094 77.8916C93.9325 60.0262 112.542 48.116 112.542 48.116C112.542 48.116 106.587 58.5374 106.587 80.1247Z" fill="#396464"/>
<path d="M154.973 31.7393V27.273C154.229 17.9681 167.628 14.2461 166.139 9.4076C163.906 3.08029 146.412 7.17443 137.852 20.9457C136.735 22.4344 135.991 24.2954 135.619 26.5286C135.247 25.0398 134.874 23.551 134.13 22.0622C130.036 13.5017 142.318 5.68565 138.596 1.59151C133.758 -3.99142 119.242 5.68565 115.892 21.69C115.148 25.0398 115.148 28.3896 116.265 31.7393C115.892 31.3671 115.52 30.9949 115.148 30.9949C108.821 26.1564 115.148 16.1071 110.682 13.8739C103.982 10.8964 98.0271 24.2954 101.377 37.3222C103.61 44.7661 111.798 52.5822 118.498 46.2549C120.731 44.3939 125.942 41.4164 128.919 40.2998C131.152 39.5554 137.108 39.9276 140.83 42.533C144.179 44.7661 146.785 49.2325 151.623 49.2325C172.838 49.9769 184.376 29.5061 176.56 25.0398C172.466 22.0622 166.139 29.5061 154.973 31.7393Z" fill="#396464"/>
<path d="M235.739 155.68C232.39 147.492 222.713 143.026 222.713 143.026C232.762 137.815 238.717 126.649 238.717 126.649C233.506 124.416 213.408 122.927 213.408 122.927C217.874 118.461 221.596 112.134 221.596 112.134C221.596 112.134 198.52 106.551 179.166 116.972C153.856 131.115 161.3 164.613 189.959 168.335C221.596 172.429 235.739 155.68 235.739 155.68Z" fill="#396464"/>
<path d="M193.196 217.192C156.021 209.737 68.5413 231.895 5.49379 253.987C-20.6785 263.157 -37 288.395 -37 316.127V417H736.947C781.662 417 807.742 376.004 772.378 348.639C768.54 345.67 764.45 342.726 760.095 339.833C705.123 303.316 592.43 265.701 461.184 259.5C329.939 253.299 251.603 228.905 193.196 217.192Z" fill="#396464"/>
<path fill-rule="evenodd" clip-rule="evenodd" d="M17.0781 270.678C18.168 269.588 19.9349 269.588 21.0248 270.678C22.8232 272.476 25.7611 275.753 28.3634 279.37C29.6664 281.182 30.9178 283.123 31.9031 285.042C32.8725 286.93 33.6696 288.958 33.9136 290.91L29.0699 291.515C28.6863 291.563 28.3377 291.29 28.249 290.914C28.0326 289.996 27.598 288.877 26.9381 287.592C26.1192 285.997 25.0334 284.299 23.8325 282.63C21.4271 279.286 18.6905 276.237 17.0781 274.624C15.9883 273.535 15.9883 271.768 17.0781 270.678Z" fill="#083E3E"/>
<path fill-rule="evenodd" clip-rule="evenodd" d="M49.6098 270.955C49.167 269.453 47.6112 268.6 46.1349 269.051C40.5947 270.742 36.802 274.818 34.3462 279.061C31.8952 283.296 30.627 287.936 30.2142 291.296L35.1547 291.924C35.4845 291.966 35.7846 291.732 35.8348 291.404C36.24 288.75 37.2853 285.174 39.1554 281.943C41.1647 278.472 43.9766 275.639 47.7387 274.49C49.215 274.04 50.0527 272.457 49.6098 270.955Z" fill="#083E3E"/>
<path d="M31.8782 266.891C31.2655 265.972 30.0238 265.723 29.1047 266.336C28.1857 266.949 27.9373 268.19 28.55 269.109L31.8782 266.891ZM33.1199 291.568C33.597 288.546 34.1204 283.745 34.1443 279.103C34.1563 276.783 34.0439 274.453 33.7224 272.382C33.4081 270.357 32.8643 268.37 31.8782 266.891L28.55 269.109C29.0522 269.863 29.4852 271.162 29.7697 272.996C30.0472 274.783 30.1557 276.884 30.1444 279.083C30.1217 283.48 29.6219 288.074 29.1688 290.944L33.1199 291.568Z" fill="#083E3E"/>
<path fill-rule="evenodd" clip-rule="evenodd" d="M94.4393 266.439C95.0251 265.854 95.9749 265.854 96.5607 266.439C97.5273 267.406 99.1064 269.167 100.505 271.112C101.206 272.085 101.878 273.129 102.408 274.16C102.929 275.175 103.357 276.265 103.488 277.314L101.206 277.599C100.823 277.647 100.472 277.374 100.359 277.004C100.228 276.576 100.022 276.082 99.7391 275.531C99.2989 274.673 98.7153 273.761 98.0698 272.863C96.7769 271.066 95.306 269.427 94.4393 268.561C93.8536 267.975 93.8536 267.025 94.4393 266.439Z" fill="#083E3E"/>
<path fill-rule="evenodd" clip-rule="evenodd" d="M111.925 266.588C111.687 265.781 110.851 265.323 110.057 265.565C107.079 266.474 105.041 268.665 103.721 270.945C102.403 273.221 101.722 275.715 101.5 277.521L103.879 277.824C104.209 277.866 104.509 277.632 104.566 277.304C104.811 275.912 105.364 274.122 106.306 272.495C107.386 270.629 108.897 269.106 110.919 268.489C111.713 268.246 112.163 267.396 111.925 266.588Z" fill="#083E3E"/>
<path d="M102.748 264.168C102.289 263.479 101.357 263.292 100.668 263.752C99.9787 264.211 99.7924 265.143 100.252 265.832L102.748 264.168ZM103.482 277.734C103.741 276.094 104.025 273.491 104.037 270.97C104.044 269.71 103.983 268.434 103.806 267.29C103.634 266.181 103.33 265.04 102.748 264.168L100.252 265.832C100.47 266.16 100.691 266.785 100.841 267.75C100.986 268.681 101.044 269.786 101.038 270.955C101.025 273.292 100.759 275.74 100.518 277.266L103.482 277.734Z" fill="#083E3E"/>
<path fill-rule="evenodd" clip-rule="evenodd" d="M57.1025 312.328C57.6429 311.787 58.519 311.787 59.0594 312.328C59.9511 313.219 61.4079 314.844 62.6982 316.638C63.3442 317.536 63.9647 318.499 64.4533 319.45C64.9339 320.386 65.3292 321.391 65.4501 322.359L63.3987 322.616C63.0151 322.664 62.6636 322.39 62.547 322.022C62.4258 321.639 62.2412 321.201 61.9915 320.714C61.5854 319.924 61.047 319.082 60.4516 318.254C59.2589 316.596 57.902 315.084 57.1025 314.285C56.5622 313.744 56.5622 312.868 57.1025 312.328Z" fill="#083E3E"/>
<path fill-rule="evenodd" clip-rule="evenodd" d="M73.2328 312.465C73.0132 311.72 72.2418 311.298 71.5098 311.521C68.7628 312.36 66.8822 314.381 65.6645 316.485C64.4493 318.584 63.8204 320.885 63.6158 322.551L65.7641 322.824C66.0938 322.866 66.3937 322.632 66.4525 322.305C66.6826 321.027 67.1905 319.397 68.0491 317.914C69.0454 316.192 70.4396 314.788 72.305 314.218C73.037 313.995 73.4524 313.21 73.2328 312.465Z" fill="#083E3E"/>
<path d="M64.864 310.168C64.4045 309.479 63.4732 309.292 62.7839 309.752C62.0946 310.211 61.9084 311.143 62.3679 311.832L64.864 310.168ZM65.5589 322.765C65.7985 321.247 66.061 318.841 66.073 316.508C66.079 315.342 66.0228 314.158 65.8578 313.095C65.6982 312.066 65.4145 310.994 64.864 310.168L62.3679 311.832C62.5554 312.113 62.756 312.67 62.8933 313.555C63.0253 314.405 63.0786 315.418 63.0731 316.493C63.062 318.641 62.8172 320.893 62.5956 322.297L65.5589 322.765Z" fill="#083E3E"/>
<path fill-rule="evenodd" clip-rule="evenodd" d="M165.439 264.439C166.025 263.854 166.975 263.854 167.561 264.439C168.527 265.406 170.106 267.167 171.505 269.112C172.206 270.085 172.878 271.129 173.408 272.16C173.929 273.175 174.357 274.265 174.488 275.314L172.206 275.599C171.823 275.647 171.472 275.374 171.359 275.004C171.228 274.576 171.022 274.082 170.739 273.531C170.299 272.673 169.715 271.761 169.07 270.863C167.777 269.066 166.306 267.427 165.439 266.561C164.854 265.975 164.854 265.025 165.439 264.439Z" fill="#083E3E"/>
<path fill-rule="evenodd" clip-rule="evenodd" d="M182.925 264.588C182.687 263.781 181.851 263.323 181.057 263.565C178.079 264.474 176.041 266.665 174.721 268.945C173.403 271.221 172.722 273.715 172.5 275.521L174.879 275.824C175.209 275.866 175.509 275.632 175.566 275.304C175.811 273.912 176.364 272.122 177.306 270.495C178.386 268.629 179.897 267.106 181.919 266.489C182.713 266.246 183.163 265.396 182.925 264.588Z" fill="#083E3E"/>
<path d="M173.748 262.168C173.289 261.479 172.357 261.292 171.668 261.752C170.979 262.211 170.792 263.143 171.252 263.832L173.748 262.168ZM174.482 275.734C174.741 274.094 175.025 271.491 175.037 268.97C175.044 267.71 174.983 266.434 174.806 265.29C174.634 264.181 174.33 263.04 173.748 262.168L171.252 263.832C171.47 264.16 171.691 264.785 171.841 265.75C171.986 266.681 172.044 267.786 172.038 268.955C172.025 271.292 171.759 273.74 171.518 275.266L174.482 275.734Z" fill="#083E3E"/>
<path fill-rule="evenodd" clip-rule="evenodd" d="M122.124 303.997C122.936 303.184 124.254 303.184 125.067 303.997C126.408 305.339 128.6 307.782 130.54 310.48C131.512 311.831 132.446 313.279 133.181 314.711C133.903 316.118 134.498 317.631 134.68 319.087L131.244 319.516C130.86 319.564 130.511 319.291 130.412 318.917C130.239 318.266 129.929 317.491 129.477 316.612C128.867 315.423 128.057 314.156 127.161 312.911C125.367 310.417 123.326 308.143 122.124 306.941C121.311 306.128 121.311 304.81 122.124 303.997Z" fill="#083E3E"/>
<path fill-rule="evenodd" clip-rule="evenodd" d="M146.387 304.204C146.056 303.083 144.896 302.448 143.795 302.784C139.663 304.045 136.834 307.085 135.003 310.25C133.175 313.408 132.229 316.869 131.921 319.375L135.454 319.824C135.783 319.866 136.084 319.632 136.137 319.304C136.455 317.341 137.23 314.748 138.59 312.399C140.088 309.81 142.185 307.697 144.991 306.841C146.092 306.505 146.717 305.324 146.387 304.204Z" fill="#083E3E"/>
<path d="M133.169 301.168C132.709 300.479 131.778 300.292 131.089 300.752C130.4 301.211 130.213 302.143 130.673 302.832L133.169 301.168ZM134.096 319.579C134.452 317.325 134.843 313.744 134.861 310.281C134.869 308.55 134.786 306.812 134.546 305.267C134.311 303.756 133.905 302.273 133.169 301.168L130.673 302.832C131.046 303.392 131.369 304.36 131.581 305.727C131.788 307.06 131.869 308.626 131.861 310.266C131.844 313.545 131.471 316.971 131.133 319.111L134.096 319.579Z" fill="#083E3E"/>
<path fill-rule="evenodd" clip-rule="evenodd" d="M221.124 262.997C221.936 262.184 223.254 262.184 224.067 262.997C225.408 264.339 227.6 266.782 229.54 269.48C230.512 270.831 231.446 272.279 232.181 273.711C232.903 275.118 233.498 276.631 233.68 278.087L230.244 278.516C229.86 278.564 229.511 278.291 229.412 277.917C229.239 277.266 228.929 276.491 228.477 275.612C227.867 274.423 227.057 273.156 226.161 271.911C224.367 269.417 222.326 267.143 221.124 265.941C220.311 265.128 220.311 263.81 221.124 262.997Z" fill="#083E3E"/>
<path fill-rule="evenodd" clip-rule="evenodd" d="M245.387 263.204C245.056 262.083 243.896 261.448 242.795 261.784C238.663 263.045 235.834 266.085 234.003 269.25C232.175 272.408 231.229 275.869 230.921 278.375L234.454 278.824C234.783 278.866 235.084 278.632 235.137 278.304C235.455 276.341 236.23 273.748 237.59 271.399C239.088 268.81 241.185 266.697 243.991 265.841C245.092 265.505 245.717 264.324 245.387 263.204Z" fill="#083E3E"/>
<path d="M232.585 259.891C231.972 258.972 230.731 258.723 229.811 259.336C228.892 259.949 228.644 261.19 229.257 262.109L232.585 259.891ZM233.59 278.657C233.949 276.384 234.343 272.777 234.361 269.284C234.369 267.538 234.285 265.771 234.04 264.19C233.802 262.656 233.382 261.086 232.585 259.891L229.257 262.109C229.57 262.579 229.879 263.461 230.087 264.804C230.288 266.101 230.369 267.639 230.361 269.263C230.344 272.511 229.974 275.912 229.639 278.033L233.59 278.657Z" fill="#083E3E"/>
<path fill-rule="evenodd" clip-rule="evenodd" d="M121.439 238.439C122.025 237.854 122.975 237.854 123.561 238.439C124.527 239.406 126.106 241.167 127.505 243.112C128.206 244.085 128.878 245.129 129.408 246.16C129.929 247.175 130.357 248.265 130.488 249.314L128.206 249.599C127.823 249.647 127.472 249.374 127.359 249.004C127.228 248.576 127.022 248.082 126.739 247.531C126.299 246.673 125.715 245.761 125.07 244.863C123.777 243.066 122.306 241.427 121.439 240.561C120.854 239.975 120.854 239.025 121.439 238.439Z" fill="#083E3E"/>
<path fill-rule="evenodd" clip-rule="evenodd" d="M138.925 238.588C138.687 237.781 137.851 237.323 137.057 237.565C134.079 238.474 132.041 240.665 130.721 242.945C129.403 245.221 128.722 247.715 128.5 249.521L130.879 249.824C131.209 249.866 131.509 249.632 131.566 249.304C131.811 247.912 132.364 246.122 133.306 244.495C134.386 242.629 135.897 241.106 137.919 240.489C138.713 240.246 139.163 239.396 138.925 238.588Z" fill="#083E3E"/>
<path d="M129.748 236.168C129.289 235.479 128.357 235.292 127.668 235.752C126.979 236.211 126.792 237.143 127.252 237.832L129.748 236.168ZM130.482 249.734C130.741 248.094 131.025 245.491 131.037 242.97C131.044 241.71 130.983 240.434 130.806 239.29C130.634 238.181 130.33 237.04 129.748 236.168L127.252 237.832C127.47 238.16 127.691 238.785 127.841 239.75C127.986 240.681 128.044 241.786 128.038 242.955C128.025 245.292 127.759 247.74 127.518 249.266L130.482 249.734Z" fill="#083E3E"/>
<path fill-rule="evenodd" clip-rule="evenodd" d="M184.471 303.444C185.465 302.449 187.078 302.449 188.072 303.444C189.713 305.085 192.394 308.075 194.768 311.375C195.957 313.028 197.099 314.8 197.999 316.551C198.883 318.273 199.61 320.124 199.833 321.905L195.474 322.45C195.09 322.498 194.742 322.225 194.65 321.85C194.448 321.023 194.056 320.022 193.468 318.877C192.721 317.422 191.73 315.873 190.634 314.35C188.439 311.298 185.942 308.516 184.471 307.045C183.476 306.05 183.476 304.438 184.471 303.444Z" fill="#083E3E"/>
<path fill-rule="evenodd" clip-rule="evenodd" d="M214.156 303.696C213.752 302.325 212.332 301.548 210.985 301.959C205.93 303.502 202.469 307.222 200.228 311.093C197.991 314.957 196.834 319.191 196.457 322.257L200.913 322.824C201.243 322.866 201.543 322.632 201.594 322.304C201.97 319.887 202.922 316.651 204.616 313.723C206.45 310.556 209.016 307.97 212.448 306.922C213.796 306.511 214.56 305.067 214.156 303.696Z" fill="#083E3E"/>
<path d="M198.122 299.891C197.509 298.972 196.267 298.723 195.348 299.336C194.429 299.949 194.181 301.19 194.793 302.109L198.122 299.891ZM199.282 322.533C199.718 319.769 200.197 315.379 200.219 311.133C200.23 309.01 200.127 306.874 199.832 304.972C199.544 303.116 199.043 301.272 198.122 299.891L194.793 302.109C195.231 302.765 195.621 303.921 195.879 305.585C196.13 307.204 196.229 309.111 196.219 311.112C196.198 315.113 195.743 319.297 195.331 321.909L199.282 322.533Z" fill="#083E3E"/>
<path fill-rule="evenodd" clip-rule="evenodd" d="M299.439 303.439C300.025 302.854 300.975 302.854 301.561 303.439C302.527 304.406 304.106 306.167 305.505 308.112C306.206 309.085 306.878 310.129 307.408 311.16C307.929 312.175 308.357 313.265 308.488 314.314L306.206 314.599C305.823 314.647 305.472 314.374 305.359 314.004C305.228 313.576 305.022 313.082 304.739 312.531C304.299 311.673 303.715 310.761 303.07 309.863C301.777 308.066 300.306 306.427 299.439 305.561C298.854 304.975 298.854 304.025 299.439 303.439Z" fill="#083E3E"/>
<path fill-rule="evenodd" clip-rule="evenodd" d="M316.925 303.588C316.687 302.781 315.851 302.323 315.057 302.565C312.079 303.474 310.041 305.665 308.721 307.945C307.403 310.221 306.722 312.715 306.5 314.521L308.879 314.824C309.209 314.866 309.509 314.632 309.566 314.304C309.811 312.912 310.364 311.122 311.306 309.495C312.386 307.629 313.897 306.106 315.919 305.489C316.713 305.246 317.163 304.396 316.925 303.588Z" fill="#083E3E"/>
<path d="M307.748 301.168C307.289 300.479 306.357 300.292 305.668 300.752C304.979 301.211 304.792 302.143 305.252 302.832L307.748 301.168ZM308.482 314.734C308.741 313.094 309.025 310.491 309.037 307.97C309.044 306.71 308.983 305.434 308.806 304.29C308.634 303.181 308.33 302.04 307.748 301.168L305.252 302.832C305.47 303.16 305.691 303.785 305.841 304.75C305.986 305.681 306.044 306.786 306.038 307.955C306.025 310.292 305.759 312.74 305.518 314.266L308.482 314.734Z" fill="#083E3E"/>
<path fill-rule="evenodd" clip-rule="evenodd" d="M275.439 257.439C276.025 256.854 276.975 256.854 277.561 257.439C278.527 258.406 280.106 260.167 281.505 262.112C282.206 263.085 282.878 264.129 283.408 265.16C283.929 266.175 284.357 267.265 284.488 268.314L282.206 268.599C281.823 268.647 281.472 268.374 281.359 268.004C281.228 267.576 281.022 267.082 280.739 266.531C280.299 265.673 279.715 264.761 279.07 263.863C277.777 262.066 276.306 260.427 275.439 259.561C274.854 258.975 274.854 258.025 275.439 257.439Z" fill="#083E3E"/>
<path fill-rule="evenodd" clip-rule="evenodd" d="M292.925 257.588C292.687 256.781 291.851 256.323 291.057 256.565C288.079 257.474 286.041 259.665 284.721 261.945C283.403 264.221 282.722 266.715 282.5 268.521L284.879 268.824C285.209 268.866 285.509 268.632 285.566 268.304C285.811 266.912 286.364 265.122 287.306 263.495C288.386 261.629 289.897 260.106 291.919 259.489C292.713 259.246 293.163 258.396 292.925 257.588Z" fill="#083E3E"/>
<path d="M283.748 255.168C283.289 254.479 282.357 254.292 281.668 254.752C280.979 255.211 280.792 256.143 281.252 256.832L283.748 255.168ZM284.482 268.734C284.741 267.094 285.025 264.491 285.037 261.97C285.044 260.71 284.983 259.434 284.806 258.29C284.634 257.181 284.33 256.04 283.748 255.168L281.252 256.832C281.47 257.16 281.691 257.785 281.841 258.75C281.986 259.681 282.044 260.786 282.038 261.955C282.025 264.292 281.759 266.74 281.518 268.266L284.482 268.734Z" fill="#083E3E"/>
<path fill-rule="evenodd" clip-rule="evenodd" d="M326.439 265.439C327.025 264.854 327.975 264.854 328.561 265.439C329.527 266.406 331.106 268.167 332.505 270.112C333.206 271.085 333.878 272.129 334.408 273.16C334.929 274.175 335.357 275.265 335.488 276.314L333.206 276.599C332.823 276.647 332.472 276.374 332.359 276.004C332.228 275.576 332.022 275.082 331.739 274.531C331.299 273.673 330.715 272.761 330.07 271.863C328.777 270.066 327.306 268.427 326.439 267.561C325.854 266.975 325.854 266.025 326.439 265.439Z" fill="#083E3E"/>
<path fill-rule="evenodd" clip-rule="evenodd" d="M343.925 265.588C343.687 264.781 342.851 264.323 342.057 264.565C339.079 265.474 337.041 267.665 335.721 269.945C334.403 272.221 333.722 274.715 333.5 276.521L335.879 276.824C336.209 276.866 336.509 276.632 336.566 276.304C336.811 274.912 337.364 273.122 338.306 271.495C339.386 269.629 340.897 268.106 342.919 267.489C343.713 267.246 344.163 266.396 343.925 265.588Z" fill="#083E3E"/>
<path d="M334.748 263.168C334.289 262.479 333.357 262.292 332.668 262.752C331.979 263.211 331.792 264.143 332.252 264.832L334.748 263.168ZM335.482 276.734C335.741 275.094 336.025 272.491 336.037 269.97C336.044 268.71 335.983 267.434 335.806 266.29C335.634 265.181 335.33 264.04 334.748 263.168L332.252 264.832C332.47 265.16 332.691 265.785 332.841 266.75C332.986 267.681 333.044 268.786 333.038 269.955C333.025 272.292 332.759 274.74 332.518 276.266L335.482 276.734Z" fill="#083E3E"/>
<path fill-rule="evenodd" clip-rule="evenodd" d="M339.439 315.439C340.025 314.854 340.975 314.854 341.561 315.439C342.527 316.406 344.106 318.167 345.505 320.112C346.206 321.085 346.878 322.129 347.408 323.16C347.929 324.175 348.357 325.265 348.488 326.314L346.206 326.599C345.823 326.647 345.472 326.374 345.359 326.004C345.228 325.576 345.022 325.082 344.739 324.531C344.299 323.673 343.715 322.761 343.07 321.863C341.777 320.066 340.306 318.427 339.439 317.561C338.854 316.975 338.854 316.025 339.439 315.439Z" fill="#083E3E"/>
<path fill-rule="evenodd" clip-rule="evenodd" d="M356.925 315.588C356.687 314.781 355.851 314.323 355.057 314.565C352.079 315.474 350.041 317.665 348.721 319.945C347.403 322.221 346.722 324.715 346.5 326.521L348.879 326.824C349.209 326.866 349.509 326.632 349.566 326.304C349.811 324.912 350.364 323.122 351.306 321.495C352.386 319.629 353.897 318.106 355.919 317.489C356.713 317.246 357.163 316.396 356.925 315.588Z" fill="#083E3E"/>
<path d="M347.748 313.168C347.289 312.479 346.357 312.292 345.668 312.752C344.979 313.211 344.792 314.143 345.252 314.832L347.748 313.168ZM348.482 326.734C348.741 325.094 349.025 322.491 349.037 319.97C349.044 318.71 348.983 317.434 348.806 316.29C348.634 315.181 348.33 314.04 347.748 313.168L345.252 314.832C345.47 315.16 345.691 315.785 345.841 316.75C345.986 317.681 346.044 318.786 346.038 319.955C346.025 322.292 345.759 324.74 345.518 326.266L348.482 326.734Z" fill="#083E3E"/>
<path fill-rule="evenodd" clip-rule="evenodd" d="M250.439 312.439C251.025 311.854 251.975 311.854 252.561 312.439C253.527 313.406 255.106 315.167 256.505 317.112C257.206 318.085 257.878 319.129 258.408 320.16C258.929 321.175 259.357 322.265 259.488 323.314L257.206 323.599C256.823 323.647 256.472 323.374 256.359 323.004C256.228 322.576 256.022 322.082 255.739 321.531C255.299 320.673 254.715 319.761 254.07 318.863C252.777 317.066 251.306 315.427 250.439 314.561C249.854 313.975 249.854 313.025 250.439 312.439Z" fill="#083E3E"/>
<path fill-rule="evenodd" clip-rule="evenodd" d="M267.925 312.588C267.687 311.781 266.851 311.323 266.057 311.565C263.079 312.474 261.041 314.665 259.721 316.945C258.403 319.221 257.722 321.715 257.5 323.521L259.879 323.824C260.209 323.866 260.509 323.632 260.566 323.304C260.811 321.912 261.364 320.122 262.306 318.495C263.386 316.629 264.897 315.106 266.919 314.489C267.713 314.246 268.163 313.396 267.925 312.588Z" fill="#083E3E"/>
<path d="M258.748 310.168C258.289 309.479 257.357 309.292 256.668 309.752C255.979 310.211 255.792 311.143 256.252 311.832L258.748 310.168ZM259.482 323.734C259.741 322.094 260.025 319.491 260.037 316.97C260.044 315.71 259.983 314.434 259.806 313.29C259.634 312.181 259.33 311.04 258.748 310.168L256.252 311.832C256.47 312.16 256.691 312.785 256.841 313.75C256.986 314.681 257.044 315.786 257.038 316.955C257.025 319.292 256.759 321.74 256.518 323.266L259.482 323.734Z" fill="#083E3E"/>
</svg>
