<svg width="17" height="20" viewBox="0 0 17 20" fill="none" xmlns="http://www.w3.org/2000/svg">
<path d="M10.152 0.644898C10.5298 0.645002 10.898 0.771713 11.2044 1.00708C11.5108 1.24245 11.7399 1.57455 11.8593 1.95633L12.348 3.52085H15.3C15.5387 3.52085 15.7676 3.62185 15.9364 3.80164C16.1052 3.98142 16.2 4.22525 16.2 4.4795C16.2 4.73375 16.1052 4.97759 15.9364 5.15737C15.7676 5.33716 15.5387 5.43816 15.3 5.43816L15.2973 5.50622L14.517 17.1471C14.4683 17.8725 14.1635 18.5512 13.6638 19.0467C13.1642 19.5423 12.5069 19.8178 11.8242 19.8179H4.3758C3.69311 19.8178 3.0358 19.5423 2.53617 19.0467C2.03654 18.5512 1.7317 17.8725 1.683 17.1471L0.9027 5.50526L0.9 5.43816C0.661305 5.43816 0.432387 5.33716 0.263604 5.15737C0.0948211 4.97759 0 4.73375 0 4.4795C0 4.22525 0.0948211 3.98142 0.263604 3.80164C0.432387 3.62185 0.661305 3.52085 0.9 3.52085H3.852L4.3407 1.95633C4.46013 1.57439 4.68939 1.24219 4.99599 1.0068C5.30259 0.771419 5.67096 0.644801 6.0489 0.644898H10.152ZM13.4973 5.43816H2.7027L3.4785 17.01C3.49466 17.2518 3.5962 17.4781 3.76268 17.6433C3.92917 17.8086 4.14824 17.9005 4.3758 17.9006H11.8242C12.0518 17.9005 12.2708 17.8086 12.4373 17.6433C12.6038 17.4781 12.7053 17.2518 12.7215 17.01L13.4973 5.43816ZM6.3 8.31411C6.52044 8.31414 6.7332 8.40035 6.89794 8.55638C7.06267 8.71241 7.16791 8.92741 7.1937 9.1606L7.2 9.27276V14.066C7.19975 14.3104 7.11191 14.5454 6.95444 14.723C6.79696 14.9007 6.58174 15.0076 6.35274 15.022C6.12375 15.0363 5.89826 14.9569 5.72235 14.8001C5.54644 14.6433 5.43339 14.4208 5.4063 14.1782L5.4 14.066V9.27276C5.4 9.01851 5.49482 8.77468 5.6636 8.59489C5.83239 8.41511 6.06131 8.31411 6.3 8.31411ZM9.9 8.31411C10.1387 8.31411 10.3676 8.41511 10.5364 8.59489C10.7052 8.77468 10.8 9.01851 10.8 9.27276V14.066C10.8 14.3203 10.7052 14.5641 10.5364 14.7439C10.3676 14.9237 10.1387 15.0247 9.9 15.0247C9.66131 15.0247 9.43239 14.9237 9.2636 14.7439C9.09482 14.5641 9 14.3203 9 14.066V9.27276C9 9.01851 9.09482 8.77468 9.2636 8.59489C9.43239 8.41511 9.66131 8.31411 9.9 8.31411ZM10.152 2.5622H6.048L5.7483 3.52085H10.4517L10.152 2.5622Z" fill="#073D3D"/>
</svg>
