<svg width="31" height="31" viewBox="0 0 31 31" fill="none" xmlns="http://www.w3.org/2000/svg">
<path d="M15.9655 19.3058C15.503 19.5739 15.2181 20.0678 15.2177 20.6023L15.2155 23.084V23.0853C15.2155 23.2505 15.1499 23.409 15.0331 23.5258C14.9163 23.6426 14.7578 23.7083 14.5926 23.7083H8.22377C8.05855 23.7083 7.9001 23.6426 7.78328 23.5258C7.66645 23.409 7.60082 23.2505 7.60082 23.0853V20.6036C7.60082 20.0681 7.31533 19.5732 6.85175 19.3051C5.71458 18.6475 4.73299 17.7518 3.97424 16.6794C3.21548 15.6071 2.69748 14.3834 2.45573 13.0922C2.21397 11.801 2.25418 10.4728 2.57359 9.19856C2.89299 7.92434 3.48406 6.73422 4.30628 5.70972C5.12851 4.68523 6.16248 3.85057 7.33735 3.26292C8.51221 2.67527 9.80023 2.34851 11.1131 2.30504C12.4261 2.26157 13.7329 2.50241 14.944 3.01106C15.8269 3.38183 16.6438 3.88853 17.3658 4.51086C17.2005 4.64557 17.0031 4.73586 16.7922 4.77248L16.7914 4.77262C10.7384 5.82721 10.7334 14.5192 16.7915 15.5724C17.0354 15.6149 17.2612 15.7291 17.4401 15.9003C17.6185 16.0712 17.7421 16.2912 17.7953 16.5324C17.7954 16.533 17.7955 16.5336 17.7957 16.5342L17.8338 16.7108C17.834 16.7118 17.8342 16.7127 17.8344 16.7137C17.9064 17.055 17.9189 17.3267 17.8902 17.521C17.8642 17.6967 17.8133 17.766 17.7717 17.8061C17.1208 18.4336 16.4212 19.0417 15.9655 19.3058ZM23.4318 4.8388L23.4318 4.83881L23.4337 4.84684L23.4719 5.01243L23.4732 5.01806C23.7683 6.27468 24.4262 7.41684 25.3652 8.30254C26.3041 9.18814 27.4825 9.77829 28.7541 9.99963C28.8115 10.0096 28.8384 10.0241 28.847 10.0293C28.8561 10.0347 28.8611 10.0396 28.8658 10.0457C28.8776 10.061 28.9 10.1043 28.9 10.1736C28.9 10.2428 28.8776 10.2861 28.8658 10.3014C28.8611 10.3075 28.8561 10.3124 28.847 10.3178C28.8384 10.323 28.8115 10.3375 28.7541 10.3475C27.4754 10.5701 26.291 11.1655 25.3496 12.059C24.4081 12.9526 23.7517 14.1044 23.4626 15.3698L23.4617 15.3739L23.4135 15.5876C23.4135 15.5878 23.4134 15.5881 23.4133 15.5884C23.4011 15.6418 23.3858 15.669 23.3783 15.6805C23.3704 15.6925 23.3625 15.7005 23.3531 15.7073C23.3317 15.7231 23.285 15.7443 23.2167 15.744C23.1485 15.7437 23.1014 15.7221 23.0796 15.7057C23.07 15.6985 23.0618 15.6902 23.0538 15.6777C23.0461 15.6658 23.0309 15.6382 23.019 15.5844C23.0189 15.5841 23.0188 15.5838 23.0188 15.5835L22.9789 15.4009C22.9789 15.4009 22.9789 15.4008 22.9789 15.4008C22.7013 14.1292 22.0513 12.9692 21.1119 12.0684C20.1724 11.1677 18.9859 10.5671 17.7038 10.3433L17.7021 10.343C17.6449 10.3331 17.6184 10.3188 17.6101 10.3138C17.6014 10.3086 17.5967 10.304 17.5923 10.2984C17.5812 10.2839 17.559 10.2416 17.559 10.1733C17.559 10.105 17.5812 10.0623 17.5927 10.0473C17.5973 10.0414 17.6022 10.0366 17.6112 10.0312C17.6197 10.0261 17.6465 10.0117 17.7037 10.0017C18.981 9.77939 20.1637 9.18314 21.1021 8.28841C22.0393 7.39472 22.6907 6.24337 22.974 4.97978L23.0047 4.84684L23.0105 4.82083L23.024 4.75705C23.0357 4.7052 23.0504 4.67858 23.0577 4.66723C23.0654 4.65521 23.0733 4.6472 23.0825 4.64026C23.1037 4.6244 23.1501 4.60284 23.218 4.60255C23.2859 4.60225 23.3325 4.62341 23.3537 4.63902C23.363 4.64585 23.3709 4.65372 23.3786 4.66556C23.386 4.67685 23.4011 4.70364 23.4133 4.75628C23.4134 4.75679 23.4135 4.7573 23.4136 4.75781L23.4318 4.8388ZM7.60295 28.9234C7.60295 28.899 7.61266 28.8755 7.62995 28.8582C7.64725 28.8409 7.6707 28.8312 7.69516 28.8312H15.1255C15.1499 28.8312 15.1734 28.8409 15.1907 28.8582C15.208 28.8755 15.2177 28.899 15.2177 28.9234C15.2177 28.9479 15.208 28.9713 15.1907 28.9886C15.1734 29.0059 15.1499 29.0156 15.1255 29.0156H7.69516C7.6707 29.0156 7.64725 29.0059 7.62995 28.9886C7.61266 28.9713 7.60295 28.9479 7.60295 28.9234Z" fill="#073D3D" fill-opacity="0.2" stroke="#073D3D" stroke-width="3" stroke-linejoin="round"/>
</svg>
